<?xml version="1.0" encoding="UTF-8" standalone="no"?>
<!-- Created with Inkscape (http://www.inkscape.org/) -->
<svg id="svg7384" xmlns:rdf="http://www.w3.org/1999/02/22-rdf-syntax-ns#" xmlns="http://www.w3.org/2000/svg" xmlns:osb="http://www.openswatchbook.org/uri/2009/osb" height="16" viewBox="0 0 16 16" width="16" version="1.1" xmlns:cc="http://creativecommons.org/ns#" xmlns:dc="http://purl.org/dc/elements/1.1/">
 <metadata id="metadata90">
  <rdf:RDF>
   <cc:Work rdf:about="">
    <dc:format>image/svg+xml</dc:format>
    <dc:type rdf:resource="http://purl.org/dc/dcmitype/StillImage"/>
    <dc:title>Gnome Symbolic Icon Theme</dc:title>
   </cc:Work>
  </rdf:RDF>
 </metadata>
 <title id="title9167">Gnome Symbolic Icon Theme</title>
 <g id="layer9" transform="translate(-261 -237)">
  <circle id="circle4813" cy="245.5" cx="265.5" r="1.5" style="fill:#bebebe"/>
  <circle id="circle4815" cy="245.5" cx="269.5" r="1.5" style="fill:#bebebe"/>
  <circle id="circle4817" cy="245.5" cx="273.5" r="1.5" style="fill:#bebebe"/>
  <path id="path4840" style="color-rendering:auto;text-decoration-color:#000000;color:#000000;font-variant-numeric:normal;shape-rendering:auto;solid-color:#000000;text-decoration-line:none;fill:#bebebe;font-variant-position:normal;mix-blend-mode:normal;font-feature-settings:normal;opacity:.5;shape-padding:0;font-variant-alternates:normal;text-indent:0;font-variant-ligatures:normal;dominant-baseline:auto;font-variant-caps:normal;image-rendering:auto;white-space:normal;text-decoration-style:solid;text-orientation:mixed;isolation:auto;text-transform:none" d="m270 237.99c-1.013 0-2.0078 0.83734-2.0078 2.0078v3h1v-3c0-0.55469 0.59972-1.0078 1.0078-1.0078 0.40309 0 1.0078 0.46762 1.0078 1.0078v3h1v-3c0-1.1637-0.98982-2.0078-2.0078-2.0078zm5.5039 1.9268s-0.3572-0.0148-0.73047 0.16797c-0.37327 0.18274-0.78125 0.65833-0.78125 1.332v1.58h1v-1.581c0-0.34718 0.094-0.37155 0.2207-0.43359 0.12673-0.062 0.26953-0.0664 0.26953-0.0664zm-11.512 1.6416v1.44h1v-1.4394zm0 6.4394v2.4605c0 1.5057 1.2728 2.5491 2.5195 2.5 0.59161-0.0233 1.1916-0.2579 1.666-0.68164s0.81446-1.0604 0.81446-1.8184v-2.46h-1v2.4605c0 0.46906-0.18906 0.81393-0.48047 1.0742-0.29141 0.26029-0.69391 0.41218-1.0391 0.42578-0.63741 0.0251-1.4805-0.57443-1.4805-1.5v-2.46zm7.0156 0v2c0 0.63648 0.26648 1.1687 0.6543 1.5039 0.38782 0.33516 0.87254 0.48828 1.3379 0.48828 0.98563 0 1.9922-0.80165 1.9922-1.9922v-2h-1v2c0 0.60442-0.57048 0.99219-0.99219 0.99219-0.23832 0-0.50097-0.0863-0.68359-0.24414-0.18262-0.15783-0.3086-0.37109-0.3086-0.74805v-2zm-8.0078-11v2h-1v1c0 1.108 0.892 2 2 2h1c1.108 0 2-0.892 2-2v-1h-1v-2h-1v2h-1v-2z"/>
 </g>
</svg>
