<?xml version="1.0" encoding="UTF-8" standalone="no"?>
<!-- Created with Inkscape (http://www.inkscape.org/) -->
<svg id="svg7384" xmlns:rdf="http://www.w3.org/1999/02/22-rdf-syntax-ns#" xmlns="http://www.w3.org/2000/svg" xmlns:osb="http://www.openswatchbook.org/uri/2009/osb" height="16.009" viewBox="0 0 16.021761 16.009432" width="16.022" version="1.1" xmlns:cc="http://creativecommons.org/ns#" xmlns:dc="http://purl.org/dc/elements/1.1/">
 <metadata id="metadata90">
  <rdf:RDF>
   <cc:Work rdf:about="">
    <dc:format>image/svg+xml</dc:format>
    <dc:type rdf:resource="http://purl.org/dc/dcmitype/StillImage"/>
    <dc:title>Gnome Symbolic Icon Theme</dc:title>
   </cc:Work>
  </rdf:RDF>
 </metadata>
 <title id="title9167">Gnome Symbolic Icon Theme</title>
 <g id="layer9" transform="translate(-421 -276.99)">
  <path id="path33973" style="color-rendering:auto;text-decoration-color:#000000;color:#000000;font-variant-numeric:normal;shape-rendering:auto;solid-color:#000000;text-decoration-line:none;fill:#bebebe;font-variant-position:normal;mix-blend-mode:normal;font-feature-settings:normal;shape-padding:0;font-variant-alternates:normal;text-indent:0;font-variant-ligatures:normal;dominant-baseline:auto;font-variant-caps:normal;image-rendering:auto;white-space:normal;text-decoration-style:solid;text-orientation:mixed;isolation:auto;text-transform:none" d="m429.05 277.11c-0.64399-0.16587-1.3353-0.14866-1.9902 0.0723a1.0001 1.0001 0 1 0 0.63867 1.8945c0.56448-0.19041 1.181-0.0318 1.584 0.4082 0.40303 0.43995 0.50811 1.0696 0.26953 1.6172-0.23859 0.54755-0.76973 0.89883-1.3652 0.90234a1.0001 1.0001 0 1 0 0.0117 2c1.3823-0.008 2.6352-0.83605 3.1875-2.1035 0.55227-1.2675 0.30495-2.7482-0.6289-3.7676-0.46693-0.50971-1.063-0.85757-1.707-1.0234z"/>
  <path id="path33975" style="color-rendering:auto;text-decoration-color:#000000;color:#000000;font-variant-numeric:normal;shape-rendering:auto;solid-color:#000000;text-decoration-line:none;fill:#bebebe;fill-rule:evenodd;font-variant-position:normal;mix-blend-mode:normal;font-feature-settings:normal;shape-padding:0;font-variant-alternates:normal;text-indent:0;font-variant-ligatures:normal;dominant-baseline:auto;font-variant-caps:normal;image-rendering:auto;white-space:normal;text-decoration-style:solid;text-orientation:mixed;isolation:auto;text-transform:none" d="m421 282v2h7.3809v-2z"/>
  <path id="path33977" style="color-rendering:auto;text-decoration-color:#000000;color:#000000;font-variant-numeric:normal;shape-rendering:auto;solid-color:#000000;text-decoration-line:none;fill:#bebebe;font-variant-position:normal;mix-blend-mode:normal;font-feature-settings:normal;shape-padding:0;font-variant-alternates:normal;text-indent:0;font-variant-ligatures:normal;dominant-baseline:auto;font-variant-caps:normal;image-rendering:auto;white-space:normal;text-decoration-style:solid;text-orientation:mixed;isolation:auto;text-transform:none" d="m434.9 281.12c-0.53477-0.15751-1.1142-0.16181-1.666 0.0137a1.0003 1.0003 0 1 0 0.60742 1.9062c0.33541-0.10666 0.68417-0.009 0.93164 0.28321 0.24747 0.29225 0.3141 0.73219 0.15625 1.0996-0.15784 0.36741-0.47992 0.57404-0.82617 0.57617a1.0001 1.0001 0 1 0 0.0117 2c1.1582-0.007 2.1954-0.72353 2.6523-1.7871 0.45694-1.0636 0.27923-2.2983-0.46875-3.1816-0.37398-0.44168-0.86366-0.75265-1.3984-0.91016z"/>
  <path id="path33979" style="color-rendering:auto;text-decoration-color:#000000;color:#000000;font-variant-numeric:normal;shape-rendering:auto;solid-color:#000000;text-decoration-line:none;fill:#bebebe;fill-rule:evenodd;font-variant-position:normal;mix-blend-mode:normal;font-feature-settings:normal;shape-padding:0;font-variant-alternates:normal;text-indent:0;font-variant-ligatures:normal;dominant-baseline:auto;font-variant-caps:normal;image-rendering:auto;white-space:normal;text-decoration-style:solid;text-orientation:mixed;isolation:auto;text-transform:none" d="m428 285v2h6v-2z"/>
  <path id="path33981" style="color-rendering:auto;text-decoration-color:#000000;color:#000000;font-variant-numeric:normal;shape-rendering:auto;solid-color:#000000;text-decoration-line:none;fill:#bebebe;font-variant-position:normal;mix-blend-mode:normal;font-feature-settings:normal;shape-padding:0;font-variant-alternates:normal;text-indent:0;font-variant-ligatures:normal;dominant-baseline:auto;font-variant-caps:normal;image-rendering:auto;white-space:normal;text-decoration-style:solid;text-orientation:mixed;isolation:auto;text-transform:none" d="m430.46 292.99c-0.50186 0.044-1.016-0.0614-1.4707-0.32422a0.99144 0.99144 0 1 1 0.99219 -1.7168c0.19328 0.11173 0.42455 0.091 0.5957-0.0527 0.17115-0.14378 0.2329-0.37119 0.15625-0.58203-0.0766-0.21084-0.26742-0.3457-0.49023-0.3457a0.99136 0.99136 0 1 1 0 -1.9824c1.0504 0 1.9947 0.66337 2.3535 1.6504 0.35883 0.98703 0.0601 2.1017-0.74414 2.7774-0.4021 0.3378-0.89072 0.53221-1.3926 0.57617z"/>
  <path id="path33983" style="color-rendering:auto;text-decoration-color:#000000;color:#000000;font-variant-numeric:normal;shape-rendering:auto;solid-color:#000000;text-decoration-line:none;fill:#bebebe;fill-rule:evenodd;font-variant-position:normal;mix-blend-mode:normal;font-feature-settings:normal;shape-padding:0;font-variant-alternates:normal;text-indent:0;font-variant-ligatures:normal;dominant-baseline:auto;font-variant-caps:normal;image-rendering:auto;white-space:normal;text-decoration-style:solid;text-orientation:mixed;isolation:auto;text-transform:none" d="m422 288v2h8.375v-2z"/>
 </g>
</svg>
