<?xml version="1.0" encoding="UTF-8" standalone="no"?>
<!-- Created with Inkscape (http://www.inkscape.org/) -->
<svg id="svg7384" xmlns:rdf="http://www.w3.org/1999/02/22-rdf-syntax-ns#" xmlns="http://www.w3.org/2000/svg" xmlns:osb="http://www.openswatchbook.org/uri/2009/osb" height="16" viewBox="0 0 16.0002 16" width="16" version="1.1" xmlns:cc="http://creativecommons.org/ns#" xmlns:dc="http://purl.org/dc/elements/1.1/">
 <metadata id="metadata90">
  <rdf:RDF>
   <cc:Work rdf:about="">
    <dc:format>image/svg+xml</dc:format>
    <dc:type rdf:resource="http://purl.org/dc/dcmitype/StillImage"/>
    <dc:title>Gnome Symbolic Icon Theme</dc:title>
   </cc:Work>
  </rdf:RDF>
 </metadata>
 <title id="title9167">Gnome Symbolic Icon Theme</title>
 <g id="layer9" transform="translate(-201,-277)">
  <path id="path7834" style="color:#bebebe;text-indent:0;text-decoration-line:none;enable-background:new;text-transform:none;fill:#bebebe" d="m209 279.99c-2.7496 0-5.0063 2.2568-5.0063 5.0063 0 2.7496 2.2567 5.0063 5.0063 5.0063s5.0063-2.2568 5.0063-5.0063c0-2.7496-2.2567-5.0063-5.0063-5.0063z"/>
  <path id="path12258" style="color-rendering:auto;color:#000000;shape-rendering:auto;solid-color:#000000;fill:#bebebe;mix-blend-mode:normal;image-rendering:auto;isolation:auto;paint-order:normal" d="m215 284c0.13761 0.71253 0.11183 1.3706 0 2l2-1z"/>
  <path id="path12274" style="color-rendering:auto;color:#000000;shape-rendering:auto;solid-color:#000000;fill:#bebebe;mix-blend-mode:normal;image-rendering:auto;isolation:auto;paint-order:normal" d="m203 284c-0.13761 0.71253-0.11183 1.3706 0 2l-2-1z"/>
  <path id="path12276" style="color-rendering:auto;color:#000000;shape-rendering:auto;solid-color:#000000;fill:#bebebe;mix-blend-mode:normal;image-rendering:auto;isolation:auto;paint-order:normal" d="m210 291c-0.71251 0.1376-1.3706 0.11183-2 0l1 2z"/>
  <path id="path12278" style="color-rendering:auto;color:#000000;shape-rendering:auto;solid-color:#000000;fill:#bebebe;mix-blend-mode:normal;image-rendering:auto;isolation:auto;paint-order:normal" d="m210 279c-0.71253-0.1376-1.3706-0.11184-2 0l0.99999-2z"/>
  <path id="path12280" style="color-rendering:auto;color:#000000;shape-rendering:auto;solid-color:#000000;fill:#bebebe;mix-blend-mode:normal;image-rendering:auto;isolation:auto;paint-order:normal" d="m205.46 289.95c-0.60112-0.40652-1.0482-0.89009-1.4142-1.4142l-0.7071 2.1213z"/>
  <path id="path12282" style="color-rendering:auto;color:#000000;shape-rendering:auto;solid-color:#000000;fill:#bebebe;mix-blend-mode:normal;image-rendering:auto;isolation:auto;paint-order:normal" d="m213.95 281.46c-0.40654-0.60112-0.89009-1.0482-1.4142-1.4142l2.1213-0.70711z"/>
  <path id="path12284" style="color-rendering:auto;color:#000000;shape-rendering:auto;solid-color:#000000;fill:#bebebe;mix-blend-mode:normal;image-rendering:auto;isolation:auto;paint-order:normal" d="m204.05 281.46c0.40651-0.60112 0.89009-1.0482 1.4142-1.4142l-2.1213-0.7071z"/>
  <path id="path12286" style="color-rendering:auto;color:#000000;shape-rendering:auto;solid-color:#000000;fill:#bebebe;mix-blend-mode:normal;image-rendering:auto;isolation:auto;paint-order:normal" d="m212.54 289.95c0.60113-0.40655 1.0482-0.89009 1.4142-1.4142l0.70711 2.1213z"/>
 </g>
</svg>
