<?xml version="1.0" encoding="UTF-8" standalone="no"?>
<!-- Created with Inkscape (http://www.inkscape.org/) -->
<svg id="svg7384" xmlns:rdf="http://www.w3.org/1999/02/22-rdf-syntax-ns#" xmlns="http://www.w3.org/2000/svg" xmlns:osb="http://www.openswatchbook.org/uri/2009/osb" height="16" viewBox="0 0 16 16" width="16" version="1.1" xmlns:cc="http://creativecommons.org/ns#" xmlns:dc="http://purl.org/dc/elements/1.1/">
 <metadata id="metadata90">
  <rdf:RDF>
   <cc:Work rdf:about="">
    <dc:format>image/svg+xml</dc:format>
    <dc:type rdf:resource="http://purl.org/dc/dcmitype/StillImage"/>
    <dc:title>Gnome Symbolic Icon Theme</dc:title>
   </cc:Work>
  </rdf:RDF>
 </metadata>
 <title id="title9167">Gnome Symbolic Icon Theme</title>
 <g id="layer9" transform="translate(-261,-277)">
  <path id="path5094-5-03-1" style="color:#000000;fill:#bebebe" d="m270.5 287c-1.3807 0-2.5 1.1193-2.5 2.5 0 0.21842 0.0411 0.42306 0.0937 0.625-0.18-0.07-0.38-0.12-0.59-0.12-0.82843 0-1.5 0.67157-1.5 1.5s0.67157 1.5 1.5 1.5h8c0.82843 0 1.5-0.67157 1.5-1.5s-0.67157-1.5-1.5-1.5c0-1.1046-0.89543-2-2-2-0.31572 0-0.60948 0.0885-0.875 0.21875-0.43-0.73-1.21-1.22-2.12-1.22z"/>
  <path id="path4034-2-5-8" style="color:#bebebe;text-indent:0;text-decoration-line:none;enable-background:new;text-transform:none;fill:#bebebe" d="m267.82 278.11c-3.2956 0.56457-5.8223 3.4408-5.8223 6.8926 0 2.3296 1.1551 4.3942 2.916 5.668 0.31106-0.81261 1.0633-1.3935 1.9414-1.6387 0.14016-1.0468 0.70749-1.9587 1.5156-2.5547-0.86632-1.3581-1.373-2.9648-1.373-4.6894 0-1.3141 0.30055-2.5563 0.82226-3.6777z"/>
  <path id="path12211-9" style="opacity:.35;color:#bebebe;text-indent:0;text-decoration-line:none;enable-background:new;text-transform:none;fill:#bebebe" d="m269 278c-0.40239 0-0.79551 0.0416-1.1797 0.10742-0.52171 1.1215-0.82226 2.3637-0.82226 3.6777 0 1.7246 0.50672 3.3314 1.373 4.6894 0.59893-0.44169 1.3267-0.71484 2.1289-0.71484 0.99742 0 1.8203 0.48451 2.4863 1.125 0.17967-0.0347 0.31584-0.125 0.51367-0.125 0.77504 0 1.4734 0.28828 2.0195 0.75585 0.30505-0.78201 0.48047-1.6277 0.48047-2.5156 0-3.8542-3.1458-7-7-7z"/>
 </g>
</svg>
