<?xml version="1.0" encoding="UTF-8" standalone="no"?>
<!-- Created with Inkscape (http://www.inkscape.org/) -->
<svg id="svg7384" xmlns:rdf="http://www.w3.org/1999/02/22-rdf-syntax-ns#" xmlns="http://www.w3.org/2000/svg" xmlns:osb="http://www.openswatchbook.org/uri/2009/osb" height="16" viewBox="0 0 16 16" width="16" version="1.1" xmlns:cc="http://creativecommons.org/ns#" xmlns:dc="http://purl.org/dc/elements/1.1/">
 <metadata id="metadata90">
  <rdf:RDF>
   <cc:Work rdf:about="">
    <dc:format>image/svg+xml</dc:format>
    <dc:type rdf:resource="http://purl.org/dc/dcmitype/StillImage"/>
    <dc:title>Gnome Symbolic Icon Theme</dc:title>
   </cc:Work>
  </rdf:RDF>
 </metadata>
 <title id="title9167">Gnome Symbolic Icon Theme</title>
 <g id="layer9" transform="translate(-221,-277)">
  <path id="path4034-2-5" style="color:#bebebe;text-indent:0;text-decoration-line:none;enable-background:new;text-transform:none;fill:#bebebe" d="m227.81 278.11c-3.2956 0.56457-5.8223 3.4408-5.8223 6.8926 0 3.8542 3.1478 7 7.002 7 1.7505 0 3.3501-0.65308 4.5801-1.7227-3.7754-0.98237-6.582-4.4177-6.582-8.4922 0-1.3141 0.30056-2.5563 0.82226-3.6777z"/>
  <path id="path12211" style="opacity:.35;color:#bebebe;text-indent:0;text-decoration-line:none;enable-background:new;text-transform:none;fill:#bebebe" d="m228.99 278c-0.40239 0-0.7955 0.0416-1.1797 0.10742-0.5217 1.1215-0.82226 2.3636-0.82226 3.6777 0 4.0745 2.8066 7.5098 6.582 8.4922 1.4781-1.2854 2.4199-3.1737 2.4199-5.2773 0-3.8542-3.1458-7-7-7z"/>
 </g>
</svg>
