<?xml version="1.0" encoding="UTF-8" standalone="no"?>
<!-- Created with Inkscape (http://www.inkscape.org/) -->
<svg id="svg7384" xmlns:rdf="http://www.w3.org/1999/02/22-rdf-syntax-ns#" xmlns="http://www.w3.org/2000/svg" xmlns:osb="http://www.openswatchbook.org/uri/2009/osb" height="16" viewBox="0 0 16.000002 16" width="16" version="1.1" xmlns:cc="http://creativecommons.org/ns#" xmlns:dc="http://purl.org/dc/elements/1.1/">
 <metadata id="metadata90">
  <rdf:RDF>
   <cc:Work rdf:about="">
    <dc:format>image/svg+xml</dc:format>
    <dc:type rdf:resource="http://purl.org/dc/dcmitype/StillImage"/>
    <dc:title>Gnome Symbolic Icon Theme</dc:title>
   </cc:Work>
  </rdf:RDF>
 </metadata>
 <title id="title9167">Gnome Symbolic Icon Theme</title>
 <g id="layer14" transform="translate(-621 -321)">
  <path id="rect27165-3" style="color:#000000;enable-background:new;fill:#bebebe" d="m630 321v1h-1v1h-0.95312v1h0.95312v1h-0.95312v1h0.95312v1h-0.95312v1h0.95312v1h1v1h1v-1h1v1h1v-1h1v1h1v-1h1v-1h1v-1h-1v-1h1v-1h-1v-1h1v-1h-1v-1h-1v-1h-1v1h-1v-1h-1v1h-1v-1z"/>
  <path id="path17377" style="color-rendering:auto;text-decoration-color:#000000;color:#000000;font-variant-numeric:normal;shape-rendering:auto;solid-color:#000000;text-decoration-line:none;fill:#bebebe;font-variant-position:normal;mix-blend-mode:normal;font-feature-settings:normal;shape-padding:0;font-variant-alternates:normal;text-indent:0;font-variant-ligatures:normal;dominant-baseline:auto;font-variant-caps:normal;image-rendering:auto;white-space:normal;text-decoration-style:solid;text-orientation:mixed;isolation:auto;paint-order:normal;text-transform:none" d="m627.5 332.98c-0.83253 0-1.5176 0.68505-1.5176 1.5176 0 0.83253 0.68505 1.5176 1.5176 1.5176 0.83253 0 1.5176-0.68505 1.5176-1.5176 0-0.83253-0.68505-1.5176-1.5176-1.5176zm0 1c0.29209 0 0.51758 0.22549 0.51758 0.51758s-0.22549 0.51758-0.51758 0.51758-0.51758-0.22549-0.51758-0.51758 0.22549-0.51758 0.51758-0.51758z"/>
  <path id="path17379" style="color-rendering:auto;text-decoration-color:#000000;color:#000000;font-variant-numeric:normal;shape-rendering:auto;solid-color:#000000;text-decoration-line:none;fill:#bebebe;font-variant-position:normal;mix-blend-mode:normal;font-feature-settings:normal;shape-padding:0;font-variant-alternates:normal;text-indent:0;font-variant-ligatures:normal;dominant-baseline:auto;font-variant-caps:normal;image-rendering:auto;white-space:normal;text-decoration-style:solid;text-orientation:mixed;isolation:auto;paint-order:normal;text-transform:none" d="m621.5 331.13v1h1.2109l1.66 2.87h2.0703v-1h-1.4922l-1.6562-2.8691z"/>
  <path id="circle17381" style="color-rendering:auto;text-decoration-color:#000000;color:#000000;font-variant-numeric:normal;shape-rendering:auto;solid-color:#000000;text-decoration-line:none;fill:#bebebe;font-variant-position:normal;mix-blend-mode:normal;font-feature-settings:normal;shape-padding:0;font-variant-alternates:normal;text-indent:0;font-variant-ligatures:normal;dominant-baseline:auto;font-variant-caps:normal;image-rendering:auto;white-space:normal;text-decoration-style:solid;text-orientation:mixed;isolation:auto;paint-order:normal;text-transform:none" d="m635.48 329.95c-0.83253 0-1.5176 0.68505-1.5176 1.5176 0 0.83253 0.68505 1.5195 1.5176 1.5195 0.83253 0 1.5176-0.687 1.5176-1.5195 0-0.83253-0.68505-1.5176-1.5176-1.5176zm0 1c0.29209 0 0.51758 0.22549 0.51758 0.51758s-0.22549 0.51953-0.51758 0.51953-0.51758-0.22744-0.51758-0.51953 0.22549-0.51758 0.51758-0.51758z"/>
  <path id="path17383" style="color-rendering:auto;text-decoration-color:#000000;color:#000000;font-variant-numeric:normal;shape-rendering:auto;solid-color:#000000;text-decoration-line:none;fill:#bebebe;font-variant-position:normal;mix-blend-mode:normal;font-feature-settings:normal;shape-padding:0;font-variant-alternates:normal;text-indent:0;font-variant-ligatures:normal;dominant-baseline:auto;font-variant-caps:normal;image-rendering:auto;white-space:normal;text-decoration-style:solid;text-orientation:mixed;isolation:auto;paint-order:normal;text-transform:none" d="m621.5 328.1v1h1.2109l1.6562 2.8672h9.7891v-1h-9.2109l-1.6562-2.8672z"/>
  <path id="circle17385" style="color-rendering:auto;text-decoration-color:#000000;color:#000000;font-variant-numeric:normal;shape-rendering:auto;solid-color:#000000;text-decoration-line:none;fill:#bebebe;font-variant-position:normal;mix-blend-mode:normal;font-feature-settings:normal;shape-padding:0;font-variant-alternates:normal;text-indent:0;font-variant-ligatures:normal;dominant-baseline:auto;font-variant-caps:normal;image-rendering:auto;white-space:normal;text-decoration-style:solid;text-orientation:mixed;isolation:auto;paint-order:normal;text-transform:none" d="m626.53 326.96c-0.83253 0-1.5176 0.687-1.5176 1.5195 0 0.83253 0.68505 1.5176 1.5176 1.5176 0.83253 0 1.5176-0.68505 1.5176-1.5176 0-0.83253-0.68505-1.5195-1.5176-1.5195zm0 1c0.29209 0 0.51757 0.22744 0.51758 0.51953 0 0.29209-0.22549 0.51758-0.51758 0.51758s-0.51758-0.22549-0.51758-0.51758 0.22549-0.51953 0.51758-0.51953z"/>
  <path id="path17387" style="color-rendering:auto;text-decoration-color:#000000;color:#000000;font-variant-numeric:normal;shape-rendering:auto;solid-color:#000000;text-decoration-line:none;fill:#bebebe;font-variant-position:normal;mix-blend-mode:normal;font-feature-settings:normal;shape-padding:0;font-variant-alternates:normal;text-indent:0;font-variant-ligatures:normal;dominant-baseline:auto;font-variant-caps:normal;image-rendering:auto;white-space:normal;text-decoration-style:solid;text-orientation:mixed;isolation:auto;paint-order:normal;text-transform:none" d="m621.5 324.98-0.002 1 3.5332 0.006 1.0586 1.709 0.85156-0.52735-1.3516-2.1816z"/>
  <path id="circle17389" style="color-rendering:auto;text-decoration-color:#000000;color:#000000;font-variant-numeric:normal;shape-rendering:auto;solid-color:#000000;text-decoration-line:none;fill:#bebebe;font-variant-position:normal;mix-blend-mode:normal;font-feature-settings:normal;shape-padding:0;font-variant-alternates:normal;text-indent:0;font-variant-ligatures:normal;dominant-baseline:auto;font-variant-caps:normal;image-rendering:auto;white-space:normal;text-decoration-style:solid;text-orientation:mixed;isolation:auto;paint-order:normal;text-transform:none" d="m622.53 324.04c0.83253 0 1.5195-0.687 1.5195-1.5195 0-0.83253-0.687-1.5176-1.5195-1.5176-0.83253 0-1.5176 0.68505-1.5176 1.5176 0 0.83253 0.68505 1.5195 1.5176 1.5195zm0-1c-0.29209 0-0.51758-0.22744-0.51758-0.51953s0.22549-0.51758 0.51758-0.51758 0.51953 0.22549 0.51953 0.51758-0.22744 0.51953-0.51953 0.51953z"/>
  <path id="path17391" style="color-rendering:auto;text-decoration-color:#000000;color:#000000;font-variant-numeric:normal;shape-rendering:auto;solid-color:#000000;text-decoration-line:none;fill:#bebebe;font-variant-position:normal;mix-blend-mode:normal;font-feature-settings:normal;shape-padding:0;font-variant-alternates:normal;text-indent:0;font-variant-ligatures:normal;dominant-baseline:auto;font-variant-caps:normal;image-rendering:auto;white-space:normal;text-decoration-style:solid;text-orientation:mixed;isolation:auto;paint-order:normal;text-transform:none" d="m623 322.01-0.002 1 3.3106 0.006 0.85351 0.82813 0.69532-0.71875-1.1426-1.1094z"/>
  <path id="circle17393" style="color-rendering:auto;text-decoration-color:#000000;color:#000000;font-variant-numeric:normal;shape-rendering:auto;solid-color:#000000;text-decoration-line:none;fill:#bebebe;font-variant-position:normal;mix-blend-mode:normal;font-feature-settings:normal;shape-padding:0;font-variant-alternates:normal;text-indent:0;font-variant-ligatures:normal;dominant-baseline:auto;font-variant-caps:normal;image-rendering:auto;white-space:normal;text-decoration-style:solid;text-orientation:mixed;isolation:auto;paint-order:normal;text-transform:none" d="m630.54 332.98c-0.83253 0-1.5195 0.68505-1.5195 1.5176 0 0.83253 0.687 1.5176 1.5195 1.5176 0.83253 0 1.5176-0.68505 1.5176-1.5176 0-0.83253-0.68505-1.5176-1.5176-1.5176zm0 1c0.29209 0 0.51758 0.22549 0.51758 0.51758s-0.22549 0.51758-0.51758 0.51758-0.51953-0.22549-0.51953-0.51758 0.22744-0.51758 0.51953-0.51758z"/>
  <path id="circle17395" style="color-rendering:auto;text-decoration-color:#000000;color:#000000;font-variant-numeric:normal;shape-rendering:auto;solid-color:#000000;text-decoration-line:none;fill:#bebebe;font-variant-position:normal;mix-blend-mode:normal;font-feature-settings:normal;shape-padding:0;font-variant-alternates:normal;text-indent:0;font-variant-ligatures:normal;dominant-baseline:auto;font-variant-caps:normal;image-rendering:auto;white-space:normal;text-decoration-style:solid;text-orientation:mixed;isolation:auto;paint-order:normal;text-transform:none" d="m633.57 332.98c-0.83253 0-1.5176 0.68505-1.5176 1.5176 0 0.83253 0.68505 1.5176 1.5176 1.5176 0.83253 0 1.5195-0.68505 1.5195-1.5176 0-0.83253-0.687-1.5176-1.5195-1.5176zm0 1c0.29209 0 0.51953 0.22549 0.51953 0.51758s-0.22744 0.51758-0.51953 0.51758-0.51758-0.22549-0.51758-0.51758 0.22549-0.51758 0.51758-0.51758z"/>
  <path id="path17397" style="color-rendering:auto;text-decoration-color:#000000;color:#000000;font-variant-numeric:normal;shape-rendering:auto;solid-color:#000000;text-decoration-line:none;fill:#bebebe;font-variant-position:normal;mix-blend-mode:normal;font-feature-settings:normal;shape-padding:0;font-variant-alternates:normal;text-indent:0;font-variant-ligatures:normal;dominant-baseline:auto;font-variant-caps:normal;image-rendering:auto;white-space:normal;text-decoration-style:solid;text-orientation:mixed;isolation:auto;paint-order:normal;text-transform:none" d="m632.78 331.31-0.86328 0.5039 1.125 1.9375 0.86328-0.5039z"/>
  <path id="path17399" style="color-rendering:auto;text-decoration-color:#000000;color:#000000;font-variant-numeric:normal;shape-rendering:auto;solid-color:#000000;text-decoration-line:none;fill:#bebebe;font-variant-position:normal;mix-blend-mode:normal;font-feature-settings:normal;shape-padding:0;font-variant-alternates:normal;text-indent:0;font-variant-ligatures:normal;dominant-baseline:auto;font-variant-caps:normal;image-rendering:auto;white-space:normal;text-decoration-style:solid;text-orientation:mixed;isolation:auto;paint-order:normal;text-transform:none" d="m629.75 331.28-0.86718 0.5 1.1562 2 0.86718-0.5z"/>
  <path id="path17401" style="color-rendering:auto;text-decoration-color:#000000;color:#000000;font-variant-numeric:normal;shape-rendering:auto;solid-color:#000000;text-decoration-line:none;fill:#bebebe;font-variant-position:normal;mix-blend-mode:normal;font-feature-settings:normal;shape-padding:0;font-variant-alternates:normal;text-indent:0;font-variant-ligatures:normal;dominant-baseline:auto;font-variant-caps:normal;image-rendering:auto;white-space:normal;text-decoration-style:solid;text-orientation:mixed;isolation:auto;paint-order:normal;text-transform:none" d="m626.92 331.34-0.89844 0.4375 0.96875 2 0.89844-0.4375z"/>
 </g>
</svg>
