<?xml version="1.0" encoding="UTF-8" standalone="no"?>
<!-- Created with Inkscape (http://www.inkscape.org/) -->
<svg id="svg7384" xmlns:rdf="http://www.w3.org/1999/02/22-rdf-syntax-ns#" xmlns="http://www.w3.org/2000/svg" xmlns:osb="http://www.openswatchbook.org/uri/2009/osb" height="16" viewBox="0 0 16 16" width="16" version="1.1" xmlns:cc="http://creativecommons.org/ns#" xmlns:dc="http://purl.org/dc/elements/1.1/">
 <metadata id="metadata90">
  <rdf:RDF>
   <cc:Work rdf:about="">
    <dc:format>image/svg+xml</dc:format>
    <dc:type rdf:resource="http://purl.org/dc/dcmitype/StillImage"/>
    <dc:title>Gnome Symbolic Icon Theme</dc:title>
   </cc:Work>
  </rdf:RDF>
 </metadata>
 <title id="title9167">Gnome Symbolic Icon Theme</title>
 <g id="layer10" transform="translate(-281 -547)">
  <path id="path5559" style="fill:#bebebe" d="m287 553c1.662 0 3 1.338 3 3v1c0 1.662-1.338 3-3 3h-3c-1.662 0-3-1.338-3-3v-1c0-1.662 1.338-3 3-3zm0 2h-3c-0.554 0-1 0.446-1 1v1c0 0.554 0.446 1 1 1h3c0.554 0 1-0.446 1-1v-1c0-0.554-0.446-1-1-1z"/>
  <path id="path5561" style="fill:#bebebe" d="m285.5 561c-2.5 0-2.5 0.5-2.5 0.5 0 0.5 0.5 0.5 0.5 0.5h4c0.5 0 0.5-0.5 0.5-0.5s0-0.5-2.5-0.5z"/>
  <path id="path5565" style="fill:#bebebe" d="m294 550.06c1.662 0 3 1.338 3 3v3.94c0 1.662-1.338 3-3 3h-3c-1.662 0-3-1.338-3-3v-3.9375c0-1.662 1.338-3 3-3zm0 2h-3c-0.554 0-1 0.446-1 1v3.94c0 0.554 0.446 1 1 1h3c0.554 0 1-0.446 1-1v-3.9375c0-0.554-0.446-1-1-1z"/>
  <path id="path5567" style="fill:#bebebe" d="m292.5 561c-2.5 0-2.5 0.5-2.5 0.5 0 0.5 0.5 0.5 0.5 0.5h4c0.5 0 0.5-0.5 0.5-0.5s0-0.5-2.5-0.5z"/>
 </g>
</svg>
