<?xml version="1.0" encoding="UTF-8" standalone="no"?>
<svg id="svg3014" xmlns:rdf="http://www.w3.org/1999/02/22-rdf-syntax-ns#" xmlns="http://www.w3.org/2000/svg" height="16" width="16" version="1.1" xmlns:cc="http://creativecommons.org/ns#" xmlns:dc="http://purl.org/dc/elements/1.1/">
 <metadata id="metadata3019">
  <rdf:RDF>
   <cc:Work rdf:about="">
    <dc:format>image/svg+xml</dc:format>
    <dc:type rdf:resource="http://purl.org/dc/dcmitype/StillImage"/>
    <dc:title/>
   </cc:Work>
  </rdf:RDF>
 </metadata>
 <path id="rect2401-5" style="opacity:.3" d="m2 3c-1.108 0-2 0.892-2 2v8c0 1.108 0.892 2 2 2h10c1.108 0 2-0.892 2-2v-1h0.38433c1.108 0 1.616-0.892 1.616-2v-2c0-1.108-0.426-2-1.534-2h-0.466v-1c0-1.108-0.892-2-2-2zm0 1h10c0.554 0 1 0.446 1 1v8c0 0.554-0.446 1-1 1h-10c-0.554 0-1-0.446-1-1v-8c0-0.554 0.446-1 1-1zm12 3c0.59742 0 1 0.051 1 1v2c0 0.9914-0.40645 1-1 1z"/>
 <path id="rect2401" style="fill:#dfdbd2" d="m2 2c-1.108 0-2 0.892-2 2v8c0 1.108 0.892 2 2 2h10c1.108 0 2-0.892 2-2v-1h0.38433c1.108 0 1.616-0.892 1.616-2v-2c0-1.108-0.426-2-1.534-2h-0.466v-1c0-1.108-0.892-2-2-2zm0 1h10c0.554 0 1 0.446 1 1v8c0 0.554-0.446 1-1 1h-10c-0.554 0-1-0.446-1-1v-8c0-0.554 0.446-1 1-1zm12 3c0.59742 0 1 0.051 1 1v2c0 0.9914-0.40645 1-1 1z"/>
 <rect id="rect3192" style="opacity:.3;stroke-width:.48880;stroke:#dfdbd2;stroke-linecap:round;fill:none" rx=".73476" ry=".73163" height="9.5112" width="11.511" y="3.2444" x="1.2444"/>
 <path id="path3172-8" style="opacity:.3;fill-rule:evenodd" d="m13 11.497-7-6v3l-5-2 7 6v-3z"/>
 <path id="path3172" style="fill:#dfdbd2;fill-rule:evenodd" d="m13 10.497-7-6v3l-5-2 7 6.0054v-3z"/>
</svg>
