<?xml version="1.0" encoding="UTF-8" standalone="no"?>
<svg id="svg3014" xmlns:rdf="http://www.w3.org/1999/02/22-rdf-syntax-ns#" xmlns="http://www.w3.org/2000/svg" height="22" width="22" version="1.1" xmlns:cc="http://creativecommons.org/ns#" xmlns:dc="http://purl.org/dc/elements/1.1/">
 <metadata id="metadata3019">
  <rdf:RDF>
   <cc:Work rdf:about="">
    <dc:format>image/svg+xml</dc:format>
    <dc:type rdf:resource="http://purl.org/dc/dcmitype/StillImage"/>
    <dc:title/>
   </cc:Work>
  </rdf:RDF>
 </metadata>
 <path id="rect2401-5" style="opacity:.3" d="m2 6c-1.108 0-2 0.892-2 2v8c0 1.108 0.892 2 2 2h16c1.108 0 2-0.892 2-2v-1h0.38433c1.108 0 1.616-0.892 1.616-2v-2c0-1.108-0.426-2-1.534-2h-0.466v-1c0-1.108-0.892-2-2-2zm0 1h16c0.554 0 1 0.446 1 1v8c0 0.554-0.446 1-1 1h-16c-0.554 0-1-0.446-1-1v-8c0-0.554 0.446-1 1-1zm18 3c0.59742 0 1 0.051 1 1v2c0 0.9914-0.40645 1-1 1z"/>
 <path id="rect2401" style="fill:#dfdbd2" d="m2 5c-1.108 0-2 0.892-2 2v8c0 1.108 0.892 2 2 2h16c1.108 0 2-0.892 2-2v-1h0.38433c1.108 0 1.616-0.892 1.616-2v-2c0-1.108-0.426-2-1.534-2h-0.466v-1c0-1.108-0.892-2-2-2zm0 1h16c0.554 0 1 0.446 1 1v8c0 0.554-0.446 1-1 1h-16c-0.554 0-1-0.446-1-1v-8c0-0.554 0.446-1 1-1zm18 3c0.59742 0 1 0.051 1 1v2c0 0.9914-0.40645 1-1 1z"/>
 <rect id="rect3192" style="opacity:.3;stroke-width:.5;stroke:#dfdbd2;stroke-linecap:round;fill:none" rx=".73984" ry=".73150" height="9.5096" width="17.51" y="6.2452" x="1.2452"/>
 <path id="path3172-8" style="opacity:.3;fill-rule:evenodd" d="m16.5 14.995-7-7v4l-6-3 8 7v-3l5 2z"/>
 <path id="path3172" style="fill:#dfdbd2;fill-rule:evenodd" d="m16.5 14-7-7v4l-6-3 8 7v-3l5 2z"/>
 <g id="g3076" style="opacity:.4" transform="matrix(.38889 0 0 1 -.72222 0)">
  <rect id="rect3190-4" style="opacity:.3;fill-rule:evenodd" transform="rotate(90)" rx=".5" ry="1.2857" height="33.429" width="8" y="-40.429" x="8"/>
  <rect id="rect3190" style="fill-rule:evenodd;fill:#dfdbd2" transform="rotate(90)" rx=".5" ry="1.2857" height="33.429" width="8" y="-40.429" x="7"/>
 </g>
</svg>
