<?xml version="1.0" encoding="UTF-8" standalone="no"?>
<!-- Created with Inkscape (http://www.inkscape.org/) -->
<svg id="svg7384" xmlns:rdf="http://www.w3.org/1999/02/22-rdf-syntax-ns#" xmlns="http://www.w3.org/2000/svg" xmlns:osb="http://www.openswatchbook.org/uri/2009/osb" height="16" viewBox="0 0 16 16" width="16" version="1.1" xmlns:cc="http://creativecommons.org/ns#" xmlns:dc="http://purl.org/dc/elements/1.1/">
 <metadata id="metadata90">
  <rdf:RDF>
   <cc:Work rdf:about="">
    <dc:format>image/svg+xml</dc:format>
    <dc:type rdf:resource="http://purl.org/dc/dcmitype/StillImage"/>
    <dc:title>Gnome Symbolic Icon Theme</dc:title>
   </cc:Work>
  </rdf:RDF>
 </metadata>
 <title id="title9167">Gnome Symbolic Icon Theme</title>
 <g id="layer12" transform="translate(-420.98 -766.99)">
  <path id="path3065" style="fill:#bebebe;fill-rule:evenodd" d="m423.66 777.28 5.8493-5.8508 2.9998 2.9998-5.8289 5.8731-4.0268 1.0718z"/>
  <path id="path3067" style="color-rendering:auto;color:#000000;shape-rendering:auto;solid-color:#000000;fill:#bebebe;fill-rule:evenodd;mix-blend-mode:normal;image-rendering:auto;isolation:auto;paint-order:normal" d="m426 767c-1.3333 0-2.2752 0.81426-2.6445 1.5527-0.38 0.74-0.36 1.45-0.36 1.45v1.5859l-0.28321-0.28321c-0.003-0.003-0.005-0.006-0.008-0.01-0.18665-0.18658-0.44163-0.29271-0.70684-0.29273h-1v1c0.00005 0.26522 0.10545 0.51951 0.29297 0.70703l2.707 2.707 2.6973-2.6973c0.19374-0.18807 0.30272-0.44681 0.30273-0.7168v-1h-1c-0.26523 0.00004-0.51953 0.10546-0.70703 0.29297l-0.29297 0.29297v-1.59s0.0134-0.29137 0.14453-0.55273c0.13078-0.26143 0.18882-0.44726 0.85547-0.44727h5.959l-1.6621 1.6602 3.0527 3.0527 1.7695-1.7695c0.3073-0.3073 0.3073-0.80208 0-1.1094l-1.84-1.83-1.58-1.41c-0.45-0.38-0.89-0.59-1.7-0.59z"/>
 </g>
</svg>
